<?xml version="1.0" encoding="utf-8"?>
<!-- Generator: Adobe Illustrator 28.0.0, SVG Export Plug-In . SVG Version: 6.00 Build 0)  -->
<svg version="1.1" id="Layer_1" xmlns:serif="http://www.serif.com/"
	 xmlns="http://www.w3.org/2000/svg" xmlns:xlink="http://www.w3.org/1999/xlink" x="0px" y="0px" viewBox="0 0 456 456"
	 style="enable-background:new 0 0 456 456;" xml:space="preserve">
<style type="text/css">
	.st0{fill:none;stroke:#F9D7C7;stroke-width:2.2736;stroke-linecap:round;stroke-linejoin:round;stroke-miterlimit:10;}
	.st1{fill:#F8EAE7;}
	.st2{fill:#F0E5E1;}
	.st3{fill:none;stroke:#F9D7C7;stroke-width:2;stroke-miterlimit:10;}
</style>
<g>
	<path class="st0" d="M295,108.2H128.2c-19.4,0-35.2,16-35.2,35.4v5.8c0,19.4,15.8,35.2,35.2,35.2H158h16"/>
	<path class="st0" d="M174.2,184.8l128.4-0.2c19.4,0,35.2,16,35.2,35.4v5.8c0,19.4-15.8,35.2-35.2,35.2H177.2H158h-29.6
		C109,261,93,276.8,93,296.2v5.8c0,19.4,16,35.4,35.4,35.4h214.4"/>
	<path class="st1" d="M134.2,121.4c-14.4,0-26,11.8-26,26c0,14.4,11.6,26,26,26h150.6v-52C284.8,121.4,134.2,121.4,134.2,121.4z"/>
	<path class="st0" d="M131.8,121.4c-14.4,0-26,11.8-26,26c0,14.4,11.6,26,26,26"/>
	<path class="st2" d="M134.2,274.2c-14.4,0-26,11.8-26,26s11.6,26,26,26h173.6v-52H134.2z"/>
	<path class="st0" d="M134.2,274.2c-14.4,0-26,11.8-26,26s11.6,26,26,26"/>
	<path class="st1" d="M297.6,249c14.2,0,26-11.8,26-26s-11.8-26-26-26H138.8v52H297.6z"/>
	<path class="st0" d="M297.6,249c14.2,0,26-11.8,26-26s-11.8-26-26-26"/>
	<line class="st0" x1="129.2" y1="133.2" x2="290.6" y2="133.2"/>
	<line class="st0" x1="129.2" y1="161.2" x2="290.6" y2="161.2"/>
	<line class="st0" x1="122.4" y1="210.2" x2="290.6" y2="210.2"/>
	<line class="st0" x1="120.2" y1="146.6" x2="295" y2="146.6"/>
	<line class="st0" x1="138" y1="287" x2="313" y2="287"/>
	<line class="st0" x1="138" y1="316" x2="313" y2="316"/>
	<line class="st0" x1="131.4" y1="301.8" x2="319.6" y2="301.8"/>
	<line class="st0" x1="124.8" y1="237.8" x2="299.6" y2="237.8"/>
	<line class="st0" x1="129.2" y1="223.2" x2="306.2" y2="223.2"/>
	<line class="st0" x1="312.2" y1="108" x2="302" y2="108"/>
	<line class="st0" x1="330" y1="108" x2="324.2" y2="108"/>
	<circle class="st3" cx="353.2" cy="338.2" r="9.8"/>
</g>
</svg>
