<?xml version="1.0" encoding="utf-8"?>
<!-- Generator: Adobe Illustrator 28.0.0, SVG Export Plug-In . SVG Version: 6.00 Build 0)  -->
<svg version="1.1" id="Layer_1" xmlns:serif="http://www.serif.com/"
	 xmlns="http://www.w3.org/2000/svg" xmlns:xlink="http://www.w3.org/1999/xlink" x="0px" y="0px" viewBox="0 0 456 456"
	 style="enable-background:new 0 0 456 456;" xml:space="preserve">
<style type="text/css">
	.st0{fill:none;stroke:#F9D7C7;stroke-width:2.2736;stroke-linecap:round;stroke-linejoin:round;stroke-miterlimit:10;}
	.st1{fill:#F8EAE7;}
	.st2{fill:#F0E5E1;}
	.st3{fill:none;stroke:#F9D7C7;stroke-width:2;stroke-miterlimit:10;}
</style>
<g>
	<path class="st0" d="M267.1,158.1h-97.3c-11.3,0-20.5,9.3-20.5,20.6v3.4c0,11.3,9.2,20.5,20.5,20.5h17.4h9.3"/>
	<path class="st0" d="M196.6,202.8l74.9-0.1c11.3,0,20.5,9.3,20.5,20.6v3.4c0,11.3-9.2,20.5-20.5,20.5h-73.2h-11.2h-17.3
		c-11.3,0-20.6,9.2-20.6,20.5v3.4c0,11.3,9.3,20.7,20.6,20.7H295"/>
	<path class="st1" d="M173.3,165.8c-8.4,0-15.2,6.9-15.2,15.2c0,8.4,6.8,15.2,15.2,15.2h87.9v-30.3
		C261.1,165.8,173.3,165.8,173.3,165.8z"/>
	<path class="st0" d="M171.9,165.8c-8.4,0-15.2,6.9-15.2,15.2c0,8.4,6.8,15.2,15.2,15.2"/>
	<path class="st2" d="M173.3,255c-8.4,0-15.2,6.9-15.2,15.2c0,8.3,6.8,15.2,15.2,15.2h101.3V255H173.3z"/>
	<path class="st0" d="M173.3,255c-8.4,0-15.2,6.9-15.2,15.2c0,8.3,6.8,15.2,15.2,15.2"/>
	<path class="st1" d="M268.6,240.2c8.3,0,15.2-6.9,15.2-15.2s-6.9-15.2-15.2-15.2H176v30.3H268.6z"/>
	<path class="st0" d="M268.6,240.2c8.3,0,15.2-6.9,15.2-15.2s-6.9-15.2-15.2-15.2"/>
	<line class="st0" x1="170.4" y1="172.7" x2="264.5" y2="172.7"/>
	<line class="st0" x1="170.4" y1="189" x2="264.5" y2="189"/>
	<line class="st0" x1="166.4" y1="217.6" x2="264.5" y2="217.6"/>
	<line class="st0" x1="165.1" y1="180.5" x2="267.1" y2="180.5"/>
	<line class="st0" x1="175.5" y1="262.4" x2="277.6" y2="262.4"/>
	<line class="st0" x1="175.5" y1="279.3" x2="277.6" y2="279.3"/>
	<line class="st0" x1="171.6" y1="271" x2="281.4" y2="271"/>
	<line class="st0" x1="167.8" y1="233.7" x2="269.8" y2="233.7"/>
	<line class="st0" x1="170.4" y1="225.2" x2="273.6" y2="225.2"/>
	<line class="st0" x1="277.1" y1="158" x2="271.2" y2="158"/>
	<line class="st0" x1="287.5" y1="158" x2="284.1" y2="158"/>
	<circle class="st3" cx="301" cy="292.3" r="5.7"/>
</g>
</svg>
